<svg xmlns="http://www.w3.org/2000/svg" xmlns:xlink="http://www.w3.org/1999/xlink" viewBox="0 0 134.32 91.35"><defs><style>.cls-1{fill:none;}.cls-2{clip-path:url(#clip-path);}.cls-3{fill:#fff;}.cls-4{fill:red;}.cls-5{fill:#05f;}.cls-6{fill:#ffc200;}</style><clipPath id="clip-path"><rect class="cls-1" x="15.1" y="5.71" width="111.48" height="85.68" rx="9.29"/></clipPath></defs><title>Asset 4</title><g id="Layer_2" data-name="Layer 2"><g id="Layer_18" data-name="Layer 18"><g class="cls-2"><rect class="cls-3" width="130" height="91"/><rect class="cls-4" x="31.1" y="5.71" width="103.23" height="13.42"/><rect class="cls-4" x="26.65" y="30.45" width="103.23" height="13.42"/><rect class="cls-4" x="14.32" y="54.19" width="112.26" height="13.42"/><rect class="cls-4" x="11.55" y="77.94" width="118.32" height="13.42"/><rect class="cls-5" x="9.94" y="3.1" width="50.58" height="40.77"/></g><path class="cls-5" d="M94,39h37a2,2,0,0,1,2,2V64a2,2,0,0,1-2,2H94a5,5,0,0,1-5-5V44A5,5,0,0,1,94,39Z"/><circle class="cls-6" cx="103.5" cy="52.5" r="7.5"/><rect class="cls-3" x="27.12" y="21.7" width="27.44" height="5.68" rx="1.33" transform="translate(-5.39 36.07) rotate(-45)"/><rect class="cls-3" x="24.69" y="26.51" width="11.16" height="5.68" rx="1.36" transform="translate(30.92 71.51) rotate(-135)"/></g></g></svg>